<svg id="Calque_10" data-name="Calque 10" xmlns="http://www.w3.org/2000/svg" viewBox="0 0 148.05 250"><defs><style>.cls-1{fill:#1d1d1b;}.cls-1,.cls-2,.cls-3,.cls-4{stroke:#1d1d1b;stroke-miterlimit:10;}.cls-2{fill:none;}.cls-3{fill:#fff;}</style></defs><g id="Calque_3" data-name="Calque 3"><path class="cls-1" d="M96.26,27.86s1.13-3,3.48-1.38,6,9.91,6.25,14.9a28.44,28.44,0,0,1-1.89,10.26l-3.9,12.17"/><path class="cls-1" d="M54,27.86s-1.14-3-3.49-1.38-6,9.91-6.25,14.9a28.44,28.44,0,0,0,1.89,10.26l3.91,12.17"/><polyline class="cls-2" points="111.04 231.82 75 180.52 75 48.38"/><polyline class="cls-2" points="39 231.82 75.04 180.52 75.04 48.38"/><line class="cls-2" x1="9.45" y1="103.25" x2="140.62" y2="103.25"/><circle class="cls-3" cx="75" cy="48.38" r="29.55"/><circle class="cls-4" cx="62.73" cy="41.38" r="2.83"/><circle class="cls-4" cx="87.34" cy="41.38" r="2.83"/><path class="cls-2" d="M62.73,61.48c9,4.59,15.07,4.59,24.61,0"/></g></svg>