<svg id="Calque_10" data-name="Calque 10" xmlns="http://www.w3.org/2000/svg" viewBox="0 0 148.05 250"><defs><style>.cls-1{fill:none;}.cls-1,.cls-2,.cls-3{stroke:#1d1d1b;stroke-miterlimit:10;}.cls-2{fill:#fff;}</style></defs><g id="Calque_7" data-name="Calque 7"><polyline class="cls-1" points="111.04 231.82 75 180.52 75 48.38"/><polyline class="cls-1" points="39 231.82 75.04 180.52 75.04 48.38"/><line class="cls-1" x1="9.45" y1="103.25" x2="140.62" y2="103.25"/><circle class="cls-2" cx="75" cy="48.38" r="29.55"/><circle class="cls-3" cx="62.73" cy="41.38" r="2.83"/><circle class="cls-3" cx="87.34" cy="41.38" r="2.83"/><path class="cls-1" d="M62.73,61.48c9,4.59,15.07,4.59,24.61,0"/><path class="cls-2" d="M31.43,23.76c0,4.55,3.54,5.27,9,6.18,6,1,69.08.54,71.31-.14a10.15,10.15,0,0,0,6.88-6"/><polyline class="cls-2" points="54.08 26.2 54.08 4.01 95.92 4.01 95.92 26.2"/></g></svg>