<svg id="Calque_10" data-name="Calque 10" xmlns="http://www.w3.org/2000/svg" viewBox="0 0 148.05 250"><defs><style>.cls-1{fill:none;}.cls-1,.cls-2,.cls-3,.cls-4{stroke:#1d1d1b;stroke-miterlimit:10;}.cls-2{fill:#020202;}.cls-3{fill:#fff;}</style></defs><g id="Calque_1" data-name="Calque 1"><polyline class="cls-1" points="111.04 231.82 75 180.52 75 48.38"/><polyline class="cls-1" points="39 231.82 75.04 180.52 75.04 48.38"/><line class="cls-1" x1="9.45" y1="103.25" x2="140.62" y2="103.25"/><path class="cls-2" d="M104.55,48.38S106,33.7,103.18,28.77,82.77,16.16,80,12.6s-2.3-6.53,0-8a24.87,24.87,0,0,1,6.65-2.41C79.81,3.74,73.76,4,68.9,2.17c0,0,5.44,2.07,6.1,3.9a7,7,0,0,1-2.09,7.11c-2.29,2-20.82,8.94-23.85,14s-3,15.37-3,15.37"/><circle class="cls-3" cx="75" cy="48.38" r="29.55"/><circle class="cls-4" cx="62.73" cy="41.38" r="2.83"/><circle class="cls-4" cx="87.34" cy="41.38" r="2.83"/><path class="cls-1" d="M62.73,61.48c9,4.59,15.07,4.59,24.61,0"/></g></svg>