<svg id="Calque_10" data-name="Calque 10" xmlns="http://www.w3.org/2000/svg" viewBox="0 0 148.05 250"><defs><style>.cls-1{fill:none;}.cls-1,.cls-2,.cls-3{stroke:#1d1d1b;stroke-miterlimit:10;}.cls-2{fill:#fff;}</style></defs><g id="Calque_11" data-name="Calque 11"><polyline class="cls-1" points="111.04 231.82 75 180.52 75 77.92"/><polyline class="cls-1" points="39 231.82 75.04 180.52 75 77.92"/><line class="cls-1" x1="9.45" y1="103.25" x2="140.62" y2="103.25"/><circle class="cls-2" cx="75" cy="48.38" r="29.55"/><circle class="cls-3" cx="62.73" cy="41.38" r="2.83"/><circle class="cls-3" cx="87.34" cy="41.38" r="2.83"/><path class="cls-1" d="M62.73,61.48c9,4.59,15.07,4.59,24.61,0"/><circle class="cls-2" cx="63.35" cy="41.88" r="1.42"/><circle class="cls-2" cx="86.53" cy="41.88" r="1.42"/><path class="cls-2" d="M78.17,19s4.57-.89,2.91-2.15-9.17-1.38-5.56-2.41,9.21-1.84,5.92-3.33-4.66-1.37-3.91-.86,1.89-.63,1.77-1.83"/></g></svg>