<svg id="Calque_10" data-name="Calque 10" xmlns="http://www.w3.org/2000/svg" viewBox="0 0 148.05 250"><defs><style>.cls-1{fill:none;}.cls-1,.cls-2,.cls-3,.cls-4{stroke:#1d1d1b;stroke-miterlimit:10;}.cls-2{fill:#fff;}.cls-4{fill:#1d1d1b;}</style></defs><g id="Calque_4" data-name="Calque 4"><polyline class="cls-1" points="111.04 231.82 75 180.52 75 48.38"/><polyline class="cls-1" points="39 231.82 75.04 180.52 75.04 48.38"/><line class="cls-1" x1="9.45" y1="103.25" x2="140.62" y2="103.25"/><circle class="cls-2" cx="75" cy="48.38" r="29.55"/><circle class="cls-3" cx="62.73" cy="41.38" r="2.83"/><circle class="cls-3" cx="87.34" cy="41.38" r="2.83"/><path class="cls-1" d="M62.73,61.48c9,4.59,15.07,4.59,24.61,0"/><path class="cls-4" d="M75,18.83a3.46,3.46,0,0,1,2.94-2.33C80.11,16.45,90.32,17.65,95,21s7.91,5.68,10,12.1,2.3,16.51,2.47,18.17-.52,21-.4,22.3.57,3.09,1.14,3.55"/></g></svg>